<!-- Replace the contents of this editor with your SVG code -->

<svg data-v-6805eed4="" version="1.0" xmlns="http://www.w3.org/2000/svg" xmlns:xlink="http://www.w3.org/1999/xlink" width="100%" height="100%" viewBox="0 0 340.000000 250.000000" preserveAspectRatio="xMidYMid meet" color-interpolation-filters="sRGB" style="margin: auto;"> <rect data-v-6805eed4="" x="0" y="0" width="100%" height="100%" fill="#000000" fill-opacity="1" class="background"></rect> <!----> <g data-v-6805eed4="" class="iconmbgsvg" transform="translate(65.56749725341797,77.27794647216797)"><g fill="#FFFFFF" hollow-target="textRect"><g mask="url(#5f127fcd-4a8b-47ba-8fb8-0c9ece08c712)"><g><rect fill="#FFFFFF" fill-opacity="0" stroke-width="2" x="0" y="0" width="90" height="89.99820003599929" class="image-rect"></rect> <svg x="0" y="0" width="90" height="89.99820003599929" filtersec="colorsb7224176727" class="image-svg-svg primary" style="overflow: visible;"><svg fill="#FFFFFF" xmlns="http://www.w3.org/2000/svg" xmlns:xlink="http://www.w3.org/1999/xlink" version="1.1" x="0px" y="0px" viewBox="20.152000427246094 20.89900016784668 58.69599914550781 58.69499969482422" enable-background="new 0 0 100 100" xml:space="preserve"><g><path d="M49.5,79.594c-16.183,0-29.348-13.166-29.348-29.348S33.317,20.899,49.5,20.899s29.348,13.166,29.348,29.348   S65.683,79.594,49.5,79.594z M49.5,22.899c-15.079,0-27.348,12.268-27.348,27.348S34.421,77.594,49.5,77.594   s27.348-12.268,27.348-27.348S64.579,22.899,49.5,22.899z"></path></g></svg></svg> <!----></g></g> <g transform="translate(33.13500213623047,52.554100036621094)"><g data-gra="path-name" fill-rule="" class="tp-name"><g transform="scale(1)"><g><path d="M40.7 0Q39.92 0 39.39-0.54L39.39-0.54Q38.81-1.11 38.81-1.89L38.81-1.89 38.81-28.97Q38.81-33.19 35.85-36.15L35.85-36.15Q32.85-39.15 28.67-39.15L28.67-39.15 16.61-39.15Q12.43-39.15 9.43-36.15L9.43-36.15Q6.47-33.19 6.47-28.97L6.47-28.97 6.47-1.89Q6.47-1.11 5.9-0.54L5.9-0.54Q5.36 0 4.58 0L4.58 0Q3.81 0 3.23-0.54L3.23-0.54Q2.7-1.11 2.7-1.89L2.7-1.89 2.7-28.97Q2.7-34.74 6.77-38.81L6.77-38.81Q10.85-42.89 16.61-42.89L16.61-42.89 28.67-42.89Q34.43-42.89 38.51-38.81L38.51-38.81Q42.59-34.74 42.59-28.97L42.59-28.97 42.59-1.89Q42.59-1.11 42.01-0.54L42.01-0.54Q41.47 0 40.7 0L40.7 0ZM76.21-23.31L73.95-23.31Q73.14-23.31 72.6-22.78L72.6-22.78Q72.07-22.24 72.07-21.46L72.07-21.46Q72.07-20.65 72.6-20.11L72.6-20.11Q73.14-19.57 73.95-19.57L73.95-19.57 76.21-19.57Q79.48-19.57 81.77-17.25L81.77-17.25Q84.09-14.93 84.09-11.66L84.09-11.66Q84.09-8.39 81.77-6.06L81.77-6.06Q79.48-3.77 76.21-3.77L76.21-3.77 49.86-3.77Q49.09-3.77 48.52-3.2L48.52-3.2Q47.98-2.66 47.98-1.89L47.98-1.89Q47.98-1.11 48.52-0.54L48.52-0.54Q49.09 0 49.86 0L49.86 0 76.21 0Q81.03 0 84.43-3.44L84.43-3.44Q87.87-6.84 87.87-11.66L87.87-11.66Q87.87-16.48 84.43-19.91L84.43-19.91Q81.03-23.31 76.21-23.31L76.21-23.31ZM59.63-19.57L61.89-19.57Q62.67-19.57 63.24-20.11L63.24-20.11Q63.78-20.65 63.78-21.46L63.78-21.46Q63.78-22.24 63.24-22.78L63.24-22.78Q62.67-23.31 61.89-23.31L61.89-23.31 59.63-23.31Q56.37-23.31 54.04-25.64L54.04-25.64Q51.75-27.96 51.75-31.23L51.75-31.23Q51.75-34.5 54.04-36.82L54.04-36.82Q56.37-39.15 59.63-39.15L59.63-39.15 85.98-39.15Q86.76-39.15 87.29-39.69L87.29-39.69Q87.87-40.23 87.87-41L87.87-41Q87.87-41.78 87.29-42.35L87.29-42.35Q86.76-42.89 85.98-42.89L85.98-42.89 59.63-42.89Q54.82-42.89 51.41-39.49L51.41-39.49Q47.98-36.05 47.98-31.23L47.98-31.23Q47.98-26.41 51.41-22.98L51.41-22.98Q54.82-19.57 59.63-19.57L59.63-19.57ZM126.98-20.96Q129.78-22.47 131.43-25.17L131.43-25.17Q133.15-27.96 133.15-31.23L133.15-31.23Q133.15-36.05 129.71-39.49L129.71-39.49Q126.31-42.89 121.49-42.89L121.49-42.89 95.14-42.89Q94.37-42.89 93.8-42.35L93.8-42.35Q93.26-41.78 93.26-41L93.26-41Q93.26-40.23 93.8-39.69L93.8-39.69Q94.37-39.15 95.14-39.15L95.14-39.15 121.49-39.15Q124.76-39.15 127.05-36.82L127.05-36.82Q129.38-34.5 129.38-31.23L129.38-31.23Q129.38-27.96 127.05-25.64L127.05-25.64Q124.76-23.31 121.49-23.31L121.49-23.31 95.14-23.31Q94.37-23.31 93.8-22.78L93.8-22.78Q93.26-22.24 93.26-21.46L93.26-21.46Q93.26-20.65 93.8-20.11L93.8-20.11Q94.37-19.57 95.14-19.57L95.14-19.57 119.23-19.57Q123.41-19.57 126.41-16.58L126.41-16.58Q129.38-13.61 129.38-9.4L129.38-9.4 129.38-1.89Q129.38-1.11 129.95-0.54L129.95-0.54Q130.49 0 131.26 0L131.26 0Q132.04 0 132.58-0.54L132.58-0.54Q133.15-1.11 133.15-1.89L133.15-1.89 133.15-9.4Q133.15-16.81 126.98-20.96L126.98-20.96ZM166.77-23.31L164.52-23.31Q163.71-23.31 163.17-22.78L163.17-22.78Q162.63-22.24 162.63-21.46L162.63-21.46Q162.63-20.65 163.17-20.11L163.17-20.11Q163.71-19.57 164.52-19.57L164.52-19.57 166.77-19.57Q170.04-19.57 172.33-17.25L172.33-17.25Q174.66-14.93 174.66-11.66L174.66-11.66Q174.66-8.39 172.33-6.06L172.33-6.06Q170.04-3.77 166.77-3.77L166.77-3.77 140.43-3.77Q139.65-3.77 139.08-3.2L139.08-3.2Q138.54-2.66 138.54-1.89L138.54-1.89Q138.54-1.11 139.08-0.54L139.08-0.54Q139.65 0 140.43 0L140.43 0 166.77 0Q171.59 0 174.99-3.44L174.99-3.44Q178.43-6.84 178.43-11.66L178.43-11.66Q178.43-16.48 174.99-19.91L174.99-19.91Q171.59-23.31 166.77-23.31L166.77-23.31ZM150.2-19.57L152.45-19.57Q153.23-19.57 153.8-20.11L153.8-20.11Q154.34-20.65 154.34-21.46L154.34-21.46Q154.34-22.24 153.8-22.78L153.8-22.78Q153.23-23.31 152.45-23.31L152.45-23.31 150.2-23.31Q146.93-23.31 144.6-25.64L144.6-25.64Q142.31-27.96 142.31-31.23L142.31-31.23Q142.31-34.5 144.6-36.82L144.6-36.82Q146.93-39.15 150.2-39.15L150.2-39.15 176.54-39.15Q177.32-39.15 177.86-39.69L177.86-39.69Q178.43-40.23 178.43-41L178.43-41Q178.43-41.78 177.86-42.35L177.86-42.35Q177.32-42.89 176.54-42.89L176.54-42.89 150.2-42.89Q145.38-42.89 141.98-39.49L141.98-39.49Q138.54-36.05 138.54-31.23L138.54-31.23Q138.54-26.41 141.98-22.98L141.98-22.98Q145.38-19.57 150.2-19.57L150.2-19.57Z" transform="translate(-2.700000047683716, 42.88999938964844)"></path></g> <!----> <!----> <!----> <!----> <!----> <!----> <!----></g></g> <!----></g></g></g><mask id="5f127fcd-4a8b-47ba-8fb8-0c9ece08c712"><g fill="white"><g><rect fill-opacity="1" stroke-width="2" x="0" y="0" width="90" height="89.99820003599929" class="image-rect"></rect> <svg x="0" y="0" width="90" height="89.99820003599929" filtersec="colorsb7224176727" class="image-svg-svg primary" style="overflow: visible;"><svg xmlns="http://www.w3.org/2000/svg" xmlns:xlink="http://www.w3.org/1999/xlink" version="1.1" x="0px" y="0px" viewBox="20.152000427246094 20.89900016784668 58.69599914550781 58.69499969482422" enable-background="new 0 0 100 100" xml:space="preserve"><g><path d="M49.5,79.594c-16.183,0-29.348-13.166-29.348-29.348S33.317,20.899,49.5,20.899s29.348,13.166,29.348,29.348   S65.683,79.594,49.5,79.594z M49.5,22.899c-15.079,0-27.348,12.268-27.348,27.348S34.421,77.594,49.5,77.594   s27.348-12.268,27.348-27.348S64.579,22.899,49.5,22.899z"></path></g></svg></svg> </g></g> <g transform="translate(33.13500213623047,52.554100036621094)"><rect fill="black" fill-opacity="1" x="-3.5" y="-3.5" width="182.72999572753906" height="49.88999938964844"></rect><rect fill="black" fill-opacity="1" x="-3.5" y="-3.5"></rect></g><g transform="translate(33.13500213623047,52.554100036621094)" fill="black"><g data-gra="path-name" fill-rule="" class="tp-name"><g transform="scale(1)"><g><path d="M40.7 0Q39.92 0 39.39-0.54L39.39-0.54Q38.81-1.11 38.81-1.89L38.81-1.89 38.81-28.97Q38.81-33.19 35.85-36.15L35.85-36.15Q32.85-39.15 28.67-39.15L28.67-39.15 16.61-39.15Q12.43-39.15 9.43-36.15L9.43-36.15Q6.47-33.19 6.47-28.97L6.47-28.97 6.47-1.89Q6.47-1.11 5.9-0.54L5.9-0.54Q5.36 0 4.58 0L4.58 0Q3.81 0 3.23-0.54L3.23-0.54Q2.7-1.11 2.7-1.89L2.7-1.89 2.7-28.97Q2.7-34.74 6.77-38.81L6.77-38.81Q10.85-42.89 16.61-42.89L16.61-42.89 28.67-42.89Q34.43-42.89 38.51-38.81L38.51-38.81Q42.59-34.74 42.59-28.97L42.59-28.97 42.59-1.89Q42.59-1.11 42.01-0.54L42.01-0.54Q41.47 0 40.7 0L40.7 0ZM76.21-23.31L73.95-23.31Q73.14-23.31 72.6-22.78L72.6-22.78Q72.07-22.24 72.07-21.46L72.07-21.46Q72.07-20.65 72.6-20.11L72.6-20.11Q73.14-19.57 73.95-19.57L73.95-19.57 76.21-19.57Q79.48-19.57 81.77-17.25L81.77-17.25Q84.09-14.93 84.09-11.66L84.09-11.66Q84.09-8.39 81.77-6.06L81.77-6.06Q79.48-3.77 76.21-3.77L76.21-3.77 49.86-3.77Q49.09-3.77 48.52-3.2L48.52-3.2Q47.98-2.66 47.98-1.89L47.98-1.89Q47.98-1.11 48.52-0.54L48.52-0.54Q49.09 0 49.86 0L49.86 0 76.21 0Q81.03 0 84.43-3.44L84.43-3.44Q87.87-6.84 87.87-11.66L87.87-11.66Q87.87-16.48 84.43-19.91L84.43-19.91Q81.03-23.31 76.21-23.31L76.21-23.31ZM59.63-19.57L61.89-19.57Q62.67-19.57 63.24-20.11L63.24-20.11Q63.78-20.65 63.78-21.46L63.78-21.46Q63.78-22.24 63.24-22.78L63.24-22.78Q62.67-23.31 61.89-23.31L61.89-23.31 59.63-23.31Q56.37-23.31 54.04-25.64L54.04-25.64Q51.75-27.96 51.75-31.23L51.75-31.23Q51.75-34.5 54.04-36.82L54.04-36.82Q56.37-39.15 59.63-39.15L59.63-39.15 85.98-39.15Q86.76-39.15 87.29-39.69L87.29-39.69Q87.87-40.23 87.87-41L87.87-41Q87.87-41.78 87.29-42.35L87.29-42.35Q86.76-42.89 85.98-42.89L85.98-42.89 59.63-42.89Q54.82-42.89 51.41-39.49L51.41-39.49Q47.98-36.05 47.98-31.23L47.98-31.23Q47.98-26.41 51.41-22.98L51.41-22.98Q54.82-19.57 59.63-19.57L59.63-19.57ZM126.98-20.96Q129.78-22.47 131.43-25.17L131.43-25.17Q133.15-27.96 133.15-31.23L133.15-31.23Q133.15-36.05 129.71-39.49L129.71-39.49Q126.31-42.89 121.49-42.89L121.49-42.89 95.14-42.89Q94.37-42.89 93.8-42.35L93.8-42.35Q93.26-41.78 93.26-41L93.26-41Q93.26-40.23 93.8-39.69L93.8-39.69Q94.37-39.15 95.14-39.15L95.14-39.15 121.49-39.15Q124.76-39.15 127.05-36.82L127.05-36.82Q129.38-34.5 129.38-31.23L129.38-31.23Q129.38-27.96 127.05-25.64L127.05-25.64Q124.76-23.31 121.49-23.31L121.49-23.31 95.14-23.31Q94.37-23.31 93.8-22.78L93.8-22.78Q93.26-22.24 93.26-21.46L93.26-21.46Q93.26-20.65 93.8-20.11L93.8-20.11Q94.37-19.57 95.14-19.57L95.14-19.57 119.23-19.57Q123.41-19.57 126.41-16.58L126.41-16.58Q129.38-13.61 129.38-9.4L129.38-9.4 129.38-1.89Q129.38-1.11 129.95-0.54L129.95-0.54Q130.49 0 131.26 0L131.26 0Q132.04 0 132.58-0.54L132.58-0.54Q133.15-1.11 133.15-1.89L133.15-1.89 133.15-9.4Q133.15-16.81 126.98-20.96L126.98-20.96ZM166.77-23.31L164.52-23.31Q163.71-23.31 163.17-22.78L163.17-22.78Q162.63-22.24 162.63-21.46L162.63-21.46Q162.63-20.65 163.17-20.11L163.17-20.11Q163.71-19.57 164.52-19.57L164.52-19.57 166.77-19.57Q170.04-19.57 172.33-17.25L172.33-17.25Q174.66-14.93 174.66-11.66L174.66-11.66Q174.66-8.39 172.33-6.06L172.33-6.06Q170.04-3.77 166.77-3.77L166.77-3.77 140.43-3.77Q139.65-3.77 139.08-3.2L139.08-3.2Q138.54-2.66 138.54-1.89L138.54-1.89Q138.54-1.11 139.08-0.54L139.08-0.54Q139.65 0 140.43 0L140.43 0 166.77 0Q171.59 0 174.99-3.44L174.99-3.44Q178.43-6.84 178.43-11.66L178.43-11.66Q178.43-16.48 174.99-19.91L174.99-19.91Q171.59-23.31 166.77-23.31L166.77-23.31ZM150.2-19.57L152.45-19.57Q153.23-19.57 153.8-20.11L153.8-20.11Q154.34-20.65 154.34-21.46L154.34-21.46Q154.34-22.24 153.8-22.78L153.8-22.78Q153.23-23.31 152.45-23.31L152.45-23.31 150.2-23.31Q146.93-23.31 144.6-25.64L144.6-25.64Q142.31-27.96 142.31-31.23L142.31-31.23Q142.31-34.5 144.6-36.82L144.6-36.82Q146.93-39.15 150.2-39.15L150.2-39.15 176.54-39.15Q177.32-39.15 177.86-39.69L177.86-39.69Q178.43-40.23 178.43-41L178.43-41Q178.43-41.78 177.86-42.35L177.86-42.35Q177.32-42.89 176.54-42.89L176.54-42.89 150.2-42.89Q145.38-42.89 141.98-39.49L141.98-39.49Q138.54-36.05 138.54-31.23L138.54-31.23Q138.54-26.41 141.98-22.98L141.98-22.98Q145.38-19.57 150.2-19.57L150.2-19.57Z" transform="translate(-2.700000047683716, 42.88999938964844)"></path></g>       </g></g> </g></mask><defs v-gra="od"></defs></svg>